<?xml version="1.0" standalone="no"?>
<!DOCTYPE svg PUBLIC "-//W3C//DTD SVG 20010904//EN"
 "http://www.w3.org/TR/2001/REC-SVG-20010904/DTD/svg10.dtd">
<svg version="1.0" xmlns="http://www.w3.org/2000/svg"
 width="1000.000000pt" height="1000.000000pt" viewBox="0 0 1000.000000 1000.000000"
 preserveAspectRatio="xMidYMid meet">
<metadata>
Created by potrace 1.14, written by Peter Selinger 2001-2017
</metadata>
<g transform="translate(0.000000,1000.000000) scale(0.100000,-0.100000)"
fill="#000000" stroke="none">
<path d="M8855 8720 c-3 -5 -1 -10 4 -10 6 0 11 5 11 10 0 6 -2 10 -4 10 -3 0
-8 -4 -11 -10z"/>
<path d="M8760 8698 c-12 -8 -12 -9 2 -4 10 3 20 1 23 -4 4 -6 0 -10 -8 -10
-8 0 -29 -3 -47 -7 -27 -5 -32 -3 -26 8 5 8 2 8 -6 -2 -16 -20 -82 -35 -73
-16 4 6 1 5 -7 -4 -13 -16 -79 -35 -111 -31 -10 1 -15 -3 -12 -8 3 -6 1 -10
-4 -10 -18 0 -26 5 -23 13 1 5 -2 5 -8 2 -6 -4 -9 -10 -5 -13 9 -9 -116 -51
-133 -45 -10 4 -13 2 -8 -5 4 -7 1 -12 -7 -12 -7 0 -31 -9 -53 -19 -28 -14
-41 -16 -46 -8 -5 8 -8 5 -8 -7 0 -13 -5 -17 -20 -13 -11 3 -18 2 -15 -3 4 -7
-74 -45 -84 -40 -2 1 -7 -2 -10 -7 -8 -12 -164 -88 -173 -85 -5 1 -8 -3 -8
-10 0 -9 -3 -9 -12 0 -7 7 -20 12 -30 12 -10 0 -18 4 -18 8 0 4 -12 9 -27 10
-15 1 -29 5 -32 10 -3 4 -19 8 -36 9 -16 1 -36 6 -45 9 -8 4 -23 6 -32 5 -10
-1 -27 3 -39 9 -12 7 -19 8 -16 3 3 -5 -17 -8 -44 -8 -27 0 -49 4 -49 10 0 5
-4 5 -8 -2 -7 -12 -79 -26 -139 -27 -17 -1 -29 -4 -26 -8 4 -8 -11 -11 -49
-11 -10 0 -18 -4 -18 -8 0 -5 -9 -9 -20 -9 -10 0 -29 -4 -42 -9 -13 -5 -57
-19 -98 -32 -41 -13 -77 -24 -80 -25 -28 -10 -51 -16 -56 -14 -4 1 -10 -2 -13
-7 -5 -7 -62 -31 -86 -36 -5 -1 -12 -5 -15 -9 -3 -3 -14 -8 -25 -10 -11 -1
-22 -5 -25 -8 -18 -18 -92 -50 -102 -44 -7 4 -10 4 -6 -1 8 -8 -92 -66 -103
-59 -4 2 -9 -3 -13 -11 -3 -8 -10 -15 -16 -15 -5 0 -32 -14 -60 -31 -27 -17
-54 -28 -60 -24 -6 4 -10 3 -9 -2 3 -20 -2 -25 -15 -14 -11 9 -14 8 -12 -5 0
-9 -8 -21 -19 -28 -11 -6 -34 -21 -51 -33 -24 -17 -34 -19 -43 -10 -10 9 -11
8 -5 -8 4 -11 4 -17 0 -14 -4 4 -21 -7 -38 -23 -17 -16 -37 -27 -44 -24 -7 3
-16 0 -20 -6 -5 -7 -2 -8 7 -3 12 8 12 6 0 -8 -7 -9 -20 -17 -28 -17 -13 0
-13 3 -2 18 13 16 13 16 -7 -1 -11 -9 -24 -14 -29 -10 -4 5 -5 2 -1 -5 4 -7
12 -10 17 -7 5 4 9 2 9 -4 0 -19 -16 -20 -30 -1 -8 10 -17 17 -22 14 -4 -3
-11 2 -14 10 -3 9 -10 14 -14 11 -4 -3 -19 5 -34 16 -14 11 -26 18 -26 14 0
-3 -9 -1 -20 5 -11 6 -18 14 -16 19 3 4 -5 7 -17 8 -27 1 -90 25 -99 38 -4 5
-4 13 -1 19 3 5 1 6 -6 2 -6 -4 -9 -12 -6 -17 4 -5 -1 -9 -10 -9 -9 0 -14 3
-11 8 2 4 -11 7 -30 6 -19 -1 -34 1 -34 5 0 4 -55 6 -122 4 -165 -5 -177 -7
-170 -17 3 -5 -2 -7 -11 -3 -9 3 -19 2 -23 -4 -3 -6 -12 -8 -20 -5 -7 3 -16 1
-20 -5 -3 -6 -12 -8 -19 -5 -7 2 -16 1 -21 -4 -5 -5 -20 -10 -34 -12 -14 -1
-27 -6 -30 -9 -10 -11 -86 -36 -102 -34 -10 2 -16 -2 -15 -8 1 -6 -2 -11 -8
-12 -5 0 -20 -7 -33 -14 -13 -7 -30 -10 -37 -7 -8 3 -17 0 -21 -6 -5 -7 -2 -8
7 -3 11 6 11 5 3 -5 -7 -6 -23 -13 -37 -13 -14 -1 -25 -5 -24 -9 1 -3 -2 -6
-7 -6 -5 0 -12 -4 -15 -9 -3 -4 -20 -16 -37 -25 -24 -14 -33 -15 -43 -5 -10 9
-11 8 -6 -5 5 -12 -2 -21 -24 -33 -17 -8 -31 -13 -31 -10 0 3 -9 -4 -20 -15
-11 -11 -27 -20 -35 -20 -8 0 -15 -4 -15 -9 0 -5 -13 -14 -30 -21 -16 -7 -30
-16 -30 -21 0 -5 -7 -9 -15 -9 -8 0 -15 -4 -15 -10 0 -5 -6 -10 -12 -10 -7 0
-24 -9 -38 -20 -14 -11 -50 -38 -80 -60 -84 -61 -113 -83 -129 -102 -8 -9 -18
-15 -23 -12 -4 3 -8 -1 -8 -9 0 -14 -20 -27 -37 -26 -4 0 -10 -9 -15 -20 -5
-14 -13 -19 -24 -14 -13 5 -15 3 -9 -7 6 -9 4 -11 -4 -6 -7 5 -10 10 -8 13 7
6 -79 89 -100 97 -9 4 -13 13 -9 22 3 8 2 12 -4 9 -13 -8 -52 14 -45 25 3 5 1
11 -5 15 -5 3 -10 2 -10 -4 0 -6 -14 -2 -30 7 -19 11 -28 22 -24 32 4 12 3 12
-7 3 -10 -10 -15 -9 -26 5 -9 10 -11 11 -7 2 7 -12 3 -11 -19 3 -14 9 -33 17
-42 17 -8 0 -15 4 -15 8 0 4 -21 13 -46 20 -38 10 -44 15 -35 26 9 10 9 16 1
21 -6 4 -9 1 -8 -7 2 -7 -7 -14 -19 -16 -13 -2 -23 2 -23 8 0 6 -5 8 -10 5 -6
-4 -27 -1 -48 6 -45 15 -67 18 -201 24 -61 3 -110 10 -120 17 -14 11 -14 11
-3 -4 14 -18 2 -23 -81 -32 -21 -3 -44 -9 -50 -14 -7 -5 -20 -8 -29 -7 -10 2
-18 -1 -18 -6 0 -5 -7 -9 -16 -9 -9 0 -12 5 -8 12 5 7 3 8 -5 4 -7 -5 -10 -10
-7 -13 3 -3 -27 -23 -67 -43 -57 -30 -75 -36 -87 -26 -13 9 -13 9 -2 -6 11
-14 8 -19 -20 -39 -18 -13 -42 -34 -54 -46 -12 -13 -24 -20 -27 -18 -4 3 -5 2
-2 -1 2 -4 -8 -21 -23 -39 -51 -60 -59 -72 -87 -123 -27 -51 -39 -55 -73 -29
-7 5 -15 7 -18 4 -3 -2 -29 1 -57 9 -29 8 -65 14 -80 14 -20 0 -26 4 -21 13 5
8 2 8 -9 -2 -14 -11 -17 -11 -17 0 0 11 -2 11 -10 -1 -7 -11 -10 -11 -10 -2 0
9 -5 10 -19 3 -10 -6 -21 -7 -25 -4 -11 11 -46 10 -46 -1 0 -6 -4 -6 -12 2 -8
8 -17 8 -31 1 -15 -9 -18 -8 -11 3 6 10 5 11 -7 2 -8 -6 -29 -11 -46 -12 -18
0 -34 -1 -35 -2 -7 -4 -112 -22 -140 -23 -10 -1 -18 -5 -18 -10 0 -5 -6 -4
-14 2 -9 8 -15 8 -18 2 -1 -6 -12 -12 -23 -14 -11 -1 -26 -7 -34 -11 -11 -7
-12 -6 -6 5 7 11 6 12 -6 2 -9 -7 -26 -15 -40 -17 -13 -3 -25 -5 -26 -7 -2 -1
-6 -2 -10 -3 -5 -2 -35 -11 -68 -21 -33 -10 -66 -18 -72 -18 -7 0 -13 -5 -13
-10 0 -5 -7 -7 -15 -3 -8 3 -15 0 -15 -5 0 -6 -9 -9 -20 -6 -11 3 -18 1 -15
-4 3 -4 -6 -11 -21 -15 -15 -4 -39 -13 -53 -20 -36 -19 -52 -18 -45 4 5 14 4
14 -4 2 -6 -8 -9 -17 -6 -21 4 -7 -50 -33 -62 -29 -4 1 -10 -2 -13 -7 -13 -17
-112 -63 -123 -57 -6 4 -8 3 -5 -3 8 -13 -20 -26 -35 -16 -6 3 -8 1 -5 -4 8
-13 -20 -26 -35 -16 -7 4 -8 1 -3 -7 11 -18 -16 -32 -34 -17 -12 10 -13 9 -7
-1 8 -14 -23 -44 -36 -36 -5 3 -8 1 -8 -4 0 -6 -26 -27 -57 -48 -32 -21 -60
-41 -61 -46 -2 -4 -10 -8 -18 -8 -8 0 -14 -5 -14 -12 0 -6 -3 -9 -6 -5 -3 3
-17 -6 -30 -20 -12 -13 -28 -22 -34 -18 -6 3 -9 3 -8 -2 2 -5 -7 -19 -19 -32
-20 -21 -24 -22 -40 -10 -16 12 -17 12 -6 -2 11 -13 8 -20 -16 -43 -18 -17
-34 -25 -42 -21 -8 5 -10 4 -5 -3 9 -15 -29 -56 -43 -47 -7 3 -11 3 -10 -2 4
-15 -13 -43 -22 -37 -5 3 -9 -2 -9 -10 0 -8 -8 -21 -19 -28 -10 -7 -20 -17
-22 -23 -2 -5 -8 -9 -12 -7 -5 1 -5 -2 -2 -8 4 -6 -3 -19 -15 -30 -12 -10 -21
-22 -22 -27 0 -17 -75 -113 -82 -106 -4 4 -4 -1 0 -12 6 -14 4 -17 -8 -12 -12
4 -14 1 -10 -15 4 -16 2 -19 -8 -13 -9 6 -11 4 -5 -4 4 -7 -1 -22 -12 -34 -11
-12 -23 -29 -27 -37 -3 -8 -24 -44 -46 -80 -22 -36 -45 -77 -51 -92 -12 -30
-32 -39 -23 -10 5 14 4 15 -5 2 -6 -8 -6 -19 -2 -23 9 -9 -25 -79 -41 -85 -5
-2 -6 -8 -3 -13 3 -4 -2 -20 -11 -34 -9 -14 -12 -25 -8 -25 5 0 2 -5 -6 -10
-8 -5 -15 -13 -15 -17 -1 -21 -40 -111 -46 -107 -4 2 -11 -1 -15 -7 -4 -8 -3
-9 4 -5 17 10 15 -2 -12 -69 -13 -33 -29 -59 -35 -57 -7 1 -10 -2 -6 -8 3 -6
10 -8 14 -6 4 3 -1 -27 -11 -67 -10 -40 -18 -80 -18 -90 0 -10 -4 -16 -9 -13
-4 3 -6 -6 -3 -21 4 -22 2 -25 -14 -20 -16 6 -17 5 -4 -5 17 -15 15 -83 -1
-72 -6 3 -5 -3 2 -14 10 -17 10 -23 0 -36 -10 -12 -10 -16 -2 -16 7 0 9 -5 6
-10 -9 -14 -13 -100 -5 -100 9 0 6 -53 -4 -68 -4 -7 -2 -12 3 -12 6 0 11 -17
12 -37 0 -21 4 -47 8 -58 5 -11 4 -28 -1 -39 -6 -11 -6 -16 -1 -13 12 7 36
-90 26 -105 -3 -6 -1 -8 4 -5 6 4 13 -2 16 -13 3 -12 1 -18 -5 -14 -6 4 -3 -5
6 -18 10 -15 14 -33 10 -43 -5 -13 -4 -16 4 -11 11 6 15 -5 11 -30 0 -4 3 -10
8 -13 4 -3 24 -37 43 -76 19 -38 43 -79 53 -90 10 -11 16 -27 14 -37 -3 -9 0
-15 7 -13 12 5 76 -74 76 -93 0 -7 7 -12 16 -12 10 0 14 -6 10 -15 -3 -8 -1
-14 3 -12 5 1 23 -13 40 -30 30 -32 41 -50 21 -38 -6 3 -7 -1 -3 -10 4 -13 8
-14 14 -4 6 10 15 6 37 -17 16 -17 45 -43 65 -58 20 -16 34 -33 30 -39 -3 -6
-1 -7 6 -3 13 9 44 -12 36 -24 -3 -4 3 -7 11 -6 9 0 18 -7 20 -17 1 -11 6 -22
10 -25 4 -4 4 1 1 11 -8 23 4 22 31 -3 12 -12 22 -18 22 -15 0 3 13 -2 29 -11
17 -10 28 -20 26 -23 -2 -3 8 -7 22 -8 14 0 29 -6 33 -13 4 -6 9 -11 11 -10 2
1 18 -4 34 -10 17 -6 42 -14 58 -17 15 -3 27 -9 27 -14 0 -5 6 -8 13 -7 6 2
11 -3 9 -11 -3 -12 -1 -12 14 0 22 18 23 18 41 -11 8 -14 12 -17 9 -7 -3 9 -1
17 4 17 6 0 10 -4 10 -8 0 -5 10 -8 22 -7 13 1 29 -2 36 -8 16 -13 16 -40 -1
-31 -7 4 -9 3 -4 -2 5 -5 13 -10 18 -10 5 -1 12 -2 15 -3 4 0 0 -9 -7 -18 -9
-10 -9 -14 -2 -10 8 5 20 -7 35 -35 12 -24 21 -46 20 -50 -1 -5 2 -8 7 -8 5 0
12 -7 15 -16 4 -10 2 -13 -7 -8 -6 3 -1 -4 13 -17 14 -13 36 -41 50 -61 14
-21 28 -38 33 -38 4 0 7 -5 7 -11 0 -6 6 -17 14 -25 16 -15 13 -29 -20 -117
-10 -26 -22 -47 -27 -47 -4 0 -6 -4 -3 -9 4 -5 -3 -30 -14 -55 -11 -26 -20
-48 -20 -51 -3 -21 -35 -82 -49 -93 -9 -7 -10 -11 -4 -7 15 7 18 -21 4 -29 -4
-3 -11 -19 -15 -36 -4 -21 -10 -29 -17 -24 -8 4 -9 3 -5 -4 8 -14 -3 -64 -14
-57 -4 3 -8 -1 -7 -8 1 -30 -4 -48 -11 -43 -4 3 -8 -7 -8 -22 1 -19 -3 -26
-14 -24 -12 3 -12 1 -3 -9 7 -7 8 -18 3 -28 -10 -19 -22 -51 -26 -68 -8 -41
-48 -160 -58 -172 -9 -12 -8 -13 2 -7 11 7 12 4 3 -11 -6 -11 -7 -24 -3 -28 4
-5 -1 -5 -10 -2 -10 3 -17 3 -16 -1 5 -18 -15 -53 -27 -48 -9 3 -12 0 -8 -10
5 -13 -21 -78 -37 -94 -3 -3 -7 -16 -9 -30 -1 -14 -6 -27 -10 -30 -3 -3 -7
-21 -9 -40 -4 -51 -7 -63 -16 -79 -6 -10 -5 -12 2 -7 7 4 12 2 12 -3 0 -6 -5
-11 -11 -11 -6 0 -7 -6 -2 -12 7 -13 9 -26 16 -113 2 -22 11 -57 20 -79 10
-21 17 -44 17 -52 0 -7 5 -16 10 -19 6 -3 10 -15 10 -26 0 -10 4 -19 8 -19 5
0 15 -12 23 -28 8 -15 22 -36 32 -47 10 -10 15 -25 12 -33 -3 -7 0 -10 6 -7
14 9 51 -25 45 -42 -3 -7 0 -15 6 -19 7 -4 8 -3 4 4 -11 18 3 14 35 -9 16 -11
26 -25 23 -31 -4 -7 -2 -8 4 -4 13 8 56 -17 46 -26 -3 -3 3 -5 13 -4 12 0 17
-5 16 -18 -1 -12 2 -15 9 -8 6 6 29 0 66 -19 32 -16 63 -29 70 -29 6 0 12 -3
12 -7 0 -5 20 -21 45 -36 25 -16 45 -36 46 -45 0 -11 2 -12 6 -5 7 18 46 -4
39 -22 -3 -8 -1 -17 5 -20 5 -4 8 -1 7 6 -2 6 3 14 11 17 9 3 11 0 6 -8 -5 -8
-4 -11 3 -7 15 10 42 -3 42 -19 0 -8 5 -14 11 -14 5 0 7 5 4 10 -3 6 -1 10 4
10 6 0 11 -5 11 -11 0 -5 4 -8 8 -5 4 3 28 0 53 -6 50 -13 219 -17 219 -6 0 4
10 7 23 7 12 -1 35 3 50 10 34 13 40 14 33 2 -7 -11 21 -8 31 4 4 4 2 5 -4 1
-7 -4 -13 -2 -13 4 0 10 16 19 42 24 7 1 23 8 36 14 12 7 28 10 34 6 6 -4 8
-3 4 4 -9 15 16 21 39 9 19 -10 19 -9 5 8 -9 11 -10 16 -2 11 6 -4 12 -3 12 2
0 6 12 13 27 17 15 3 31 12 35 18 5 8 11 7 21 -1 12 -10 15 -10 13 4 -1 12 10
20 31 26 18 5 33 13 33 17 0 5 12 14 28 20 15 6 41 19 57 30 28 17 31 17 50 2
18 -15 19 -15 6 2 -8 9 -11 21 -7 25 4 4 14 -2 22 -12 8 -11 14 -15 14 -10 0
6 -5 15 -12 22 -8 8 -5 14 14 21 15 5 29 15 33 20 10 18 25 13 19 -6 -2 -10 1
-8 7 5 7 13 18 21 26 18 8 -3 11 -2 8 4 -8 13 26 28 58 25 15 -2 25 1 22 5 -3
5 -13 7 -23 4 -11 -4 -8 2 8 15 24 20 36 25 53 22 4 0 7 3 7 9 0 5 7 10 15 10
8 0 15 5 15 11 0 5 4 7 10 4 5 -3 10 -1 10 4 0 6 6 11 13 11 7 0 23 9 35 20
24 23 37 26 26 8 -4 -7 5 -1 19 15 34 36 77 53 89 35 6 -8 7 -5 3 11 -5 16 -4
21 4 17 6 -4 11 -3 11 2 0 4 19 19 43 32 23 13 53 32 66 42 15 11 32 16 45 13
14 -4 17 -3 8 3 -10 7 -7 13 14 26 18 12 24 14 19 5 -4 -8 2 -3 13 10 12 15
25 22 35 18 11 -4 14 -2 10 9 -4 10 0 12 13 7 13 -5 15 -3 9 7 -6 10 -4 12 8
7 9 -3 16 -2 14 2 -1 5 1 10 5 11 4 0 21 14 39 31 17 16 37 29 45 29 8 0 14 3
14 8 0 4 9 13 21 20 17 11 20 11 14 0 -4 -7 2 -2 13 11 13 16 24 21 33 16 8
-5 11 -5 7 0 -11 12 19 36 36 29 16 -6 20 -16 17 -44 -1 -11 1 -11 9 2 10 17
14 16 49 -7 21 -13 42 -21 47 -17 4 4 4 1 0 -5 -4 -8 -1 -13 8 -13 8 0 44 -13
79 -30 36 -16 72 -30 81 -30 8 0 18 -5 21 -10 4 -6 11 -8 16 -5 5 4 9 -2 10
-12 0 -10 3 -13 6 -5 2 6 11 12 18 12 14 0 28 -27 20 -40 -3 -5 0 -12 6 -16 7
-4 9 -3 5 4 -3 6 -1 14 5 18 8 4 7 9 -2 16 -10 6 -6 7 11 2 14 -4 31 -7 38 -7
6 0 12 -4 12 -9 0 -6 6 -8 13 -5 6 2 18 -3 25 -12 11 -15 12 -15 6 0 -4 13 0
15 20 12 14 -3 26 -10 26 -16 0 -8 3 -8 10 -1 14 14 72 5 63 -9 -3 -6 -1 -7 6
-3 17 11 166 9 164 -2 -1 -5 4 -9 12 -9 8 0 11 7 7 16 -5 14 -3 14 11 2 9 -7
17 -9 17 -4 0 6 22 9 50 9 27 -1 50 1 50 5 0 3 10 5 23 5 12 -1 33 2 45 6 21
7 58 14 128 22 11 1 25 6 32 10 11 7 16 1 13 -17 -1 -5 3 -6 9 -2 6 3 7 11 4
17 -5 7 0 9 14 6 12 -4 20 -2 17 2 -10 16 30 16 43 0 11 -13 11 -13 6 1 -3 11
2 18 16 22 25 7 52 -1 45 -13 -3 -5 5 -6 17 -2 11 3 19 1 16 -4 -4 -5 4 -10
15 -11 56 -4 77 -9 77 -17 0 -5 8 -2 17 5 15 12 16 12 10 -3 -3 -10 -2 -18 3
-18 6 0 10 5 10 10 0 6 14 10 31 10 16 0 28 -4 25 -8 -3 -5 1 -9 9 -9 8 0 12
4 9 9 -8 13 31 9 45 -4 10 -11 11 -10 6 3 -5 13 2 15 35 15 22 -1 40 3 40 8 0
4 11 6 25 3 14 -2 23 -2 20 1 -2 3 7 11 21 18 22 12 28 11 41 -1 8 -8 19 -13
24 -10 13 8 11 16 -2 13 -6 -2 -14 3 -17 11 -3 10 0 12 12 8 10 -4 15 -3 11 3
-3 5 11 17 32 25 31 13 42 14 58 4 18 -11 18 -10 7 4 -8 9 -9 18 -3 21 5 3 12
0 14 -6 4 -8 6 -7 6 3 1 14 45 35 60 29 2 -1 7 3 10 8 3 5 40 26 81 45 51 25
78 33 86 26 8 -7 11 -5 10 8 -1 12 6 18 21 18 12 0 25 4 30 9 5 5 3 6 -4 2 -7
-4 -13 -3 -13 2 0 5 9 12 20 15 11 3 18 1 15 -3 -3 -5 0 -12 6 -16 7 -4 9 -3
5 4 -3 6 -1 16 6 22 28 24 228 118 234 109 5 -8 -10 -13 -29 -10 -5 1 -6 -3
-2 -9 4 -7 12 -7 25 0 26 14 30 13 31 -12 1 -18 2 -19 6 -5 2 9 9 15 14 11 5
-3 7 -10 3 -15 -3 -5 -2 -8 3 -7 15 4 103 -34 97 -43 -3 -5 2 -6 10 -3 8 3 21
2 28 -2 15 -10 20 -11 49 -13 12 -1 17 -5 13 -13 -5 -7 -3 -8 7 -2 19 12 39
14 39 4 0 -4 9 -6 20 -3 11 3 26 0 33 -6 8 -6 17 -7 21 -3 11 11 50 9 58 -3 5
-6 8 -5 8 4 0 11 3 11 16 1 12 -11 15 -11 12 -1 -2 8 5 15 15 16 19 4 22 -6 7
-21 -7 -7 -6 -11 4 -11 8 0 13 4 10 8 -6 10 24 39 42 40 23 2 28 4 42 12 6 5
12 5 12 2 0 -4 7 1 17 10 9 9 26 15 39 12 16 -3 21 0 17 10 -3 8 -2 13 3 11
15 -4 54 13 54 23 0 6 9 7 21 4 14 -5 19 -3 15 3 -7 12 52 35 67 25 6 -3 7 -1
3 5 -3 6 3 16 14 22 11 6 20 8 20 4 0 -3 7 -1 16 7 13 10 17 10 26 -2 8 -11 9
-11 4 3 -4 13 8 23 51 43 31 14 63 23 70 20 8 -2 11 -1 8 5 -3 5 4 14 15 20
11 6 20 7 20 3 0 -4 4 -3 8 4 14 22 95 53 109 41 10 -8 12 -7 7 6 -4 10 0 18
12 23 11 3 21 9 24 13 3 3 25 14 50 25 25 10 53 25 62 33 9 8 28 15 41 16 14
0 23 4 21 7 -7 12 82 50 99 43 13 -5 20 -1 23 13 3 10 14 25 26 32 11 7 17 8
13 2 -3 -6 -1 -11 4 -11 6 0 11 7 11 15 0 14 14 19 47 18 7 0 11 4 10 11 -1 6
6 10 15 10 10 -1 16 2 13 6 -7 11 24 22 37 13 7 -3 8 -1 4 5 -3 6 3 16 14 22
11 6 20 7 20 3 0 -4 7 0 15 11 8 10 21 16 29 13 9 -4 15 -1 13 6 -1 7 8 12 19
11 14 0 20 4 17 13 -3 9 0 11 10 8 8 -4 17 1 20 9 4 10 13 13 23 9 13 -5 15
-3 9 7 -6 10 -4 12 9 7 9 -4 15 -3 12 2 -3 5 6 17 20 26 15 9 23 12 20 6 -5
-7 -1 -9 8 -5 9 3 14 10 11 14 -3 4 6 15 20 24 13 9 26 12 30 7 3 -5 0 -11 -7
-13 -8 -3 -6 -7 4 -11 13 -4 16 -1 13 15 -5 23 22 49 86 84 21 12 35 25 31 29
-4 5 1 5 11 2 10 -4 16 -3 13 2 -3 4 3 16 14 26 20 18 21 18 36 -1 14 -18 15
-18 5 3 -9 18 -7 25 15 42 15 11 30 18 35 15 5 -3 6 3 2 13 -3 10 -3 15 1 11
4 -3 23 9 42 28 18 20 38 33 44 29 6 -4 7 1 3 11 -4 12 -3 15 5 10 7 -4 12 -1
12 8 0 15 12 21 33 17 5 -1 6 3 3 8 -4 5 6 19 20 30 15 12 23 21 18 21 -4 0 1
6 11 14 11 8 24 12 29 9 5 -4 6 -1 3 4 -9 14 37 63 60 64 12 0 13 2 5 6 -9 3
-3 15 20 36 18 16 26 26 19 22 -10 -6 -7 2 5 21 12 16 24 37 27 48 6 14 10 16
20 7 10 -8 14 -7 14 4 0 8 -4 12 -9 9 -12 -8 2 48 17 66 7 8 10 21 7 29 -3 8
0 11 7 7 7 -5 9 -1 5 9 -4 8 -2 21 3 28 4 6 8 24 7 40 -1 16 4 27 12 27 7 0
16 4 19 10 3 6 -1 7 -9 4 -9 -3 -16 -1 -16 5 0 6 6 11 13 11 7 0 8 3 2 8 -12
9 -16 54 -4 46 12 -7 11 7 0 26 -6 8 -7 19 -3 25 9 14 11 35 4 35 -4 0 -7 33
-8 73 0 54 4 75 15 85 14 10 14 11 -3 5 -16 -5 -18 -3 -14 15 3 11 1 23 -6 26
-6 2 -2 5 9 6 18 0 18 2 3 10 -13 8 -16 22 -14 55 1 25 -1 45 -4 45 -4 0 -6
11 -5 25 2 14 -1 27 -6 31 -5 3 -7 10 -4 15 4 5 3 15 -2 22 -4 6 -8 17 -10 22
-8 36 -13 53 -22 79 -9 23 -9 27 2 23 8 -3 14 1 14 8 0 7 -7 11 -15 8 -13 -6
-31 12 -32 30 0 4 10 12 23 18 18 8 17 9 -12 4 l-34 -5 26 23 c15 12 27 28 27
35 0 7 5 10 10 7 6 -3 10 2 10 13 0 22 33 56 44 45 4 -4 4 0 0 10 -3 9 -2 17
4 17 5 0 13 11 16 25 4 16 11 23 18 19 6 -4 8 -3 5 4 -9 13 2 44 13 37 5 -3 6
4 3 15 -3 12 0 20 8 20 7 0 10 3 6 6 -3 3 1 23 8 44 7 21 10 42 7 46 -4 4 2 4
12 0 15 -5 17 -4 8 7 -8 10 -9 31 -1 78 11 67 7 272 -6 302 -4 10 -2 24 5 32
11 13 10 14 -2 10 -11 -4 -17 2 -21 22 -3 15 -1 31 5 34 6 4 6 8 -2 11 -13 4
-15 11 -25 82 -3 22 -10 45 -16 53 -9 10 -8 13 0 13 7 0 9 5 5 13 -4 6 -4 9 0
6 4 -4 27 11 51 33 24 22 46 38 50 36 3 -1 11 5 16 15 6 9 15 15 20 11 5 -3 8
0 7 7 -2 6 3 14 11 17 8 2 11 0 8 -5 -3 -5 0 -10 7 -10 7 0 13 6 13 13 0 7 -4
11 -9 8 -19 -12 -6 9 20 31 26 24 48 33 38 17 -3 -5 1 -9 9 -9 11 0 12 4 4 14
-17 20 87 125 116 117 16 -4 17 -3 5 5 -13 10 -13 12 0 20 9 7 20 6 30 -2 13
-11 13 -10 0 7 -13 16 -12 20 3 31 9 7 17 17 17 24 0 10 11 14 28 9 4 -2 6 -6
4 -10 -4 -13 5 -9 19 9 8 10 9 14 2 10 -6 -4 -14 -3 -18 3 -8 12 24 62 36 54
5 -3 6 2 3 10 -3 9 -1 16 5 16 6 0 11 8 11 18 0 10 3 22 8 26 4 4 7 11 8 14 1
6 14 40 31 82 3 8 5 22 4 32 -1 9 3 19 8 22 6 4 8 13 4 21 -3 8 -1 15 4 15 5
0 9 67 8 150 0 126 2 150 15 151 13 0 13 1 0 7 -8 4 -16 21 -17 37 -1 17 -5
64 -9 105 -4 41 -7 85 -7 98 -1 12 -6 22 -11 22 -6 0 -4 5 4 10 12 8 12 10 1
10 -11 0 -11 3 -1 15 7 8 17 12 23 8 6 -3 7 -1 3 6 -6 9 -11 9 -21 1 -15 -12
-22 -5 -28 31 -3 13 -12 40 -20 59 -36 81 -37 90 -17 111 11 12 20 13 35 6 17
-9 18 -8 7 5 -12 15 -7 48 7 48 4 0 13 11 19 25 6 14 18 25 26 25 8 0 18 4 21
10 3 6 -1 7 -10 4 -14 -6 -13 -1 4 29 11 19 17 38 13 43 -4 4 0 5 9 1 9 -3 16
0 16 6 -1 35 4 58 11 53 5 -3 10 9 11 27 3 53 4 57 11 57 3 0 6 10 7 23 0 12
4 45 8 72 3 28 6 63 7 78 0 20 4 27 14 23 7 -3 16 -1 19 5 4 5 3 9 -2 8 -20
-3 -34 2 -28 11 3 6 1 10 -6 10 -10 0 -10 3 -1 12 7 7 8 17 1 30 -6 12 -6 18
1 18 6 0 5 8 -2 20 -11 17 -10 22 2 30 13 8 12 10 -3 10 -10 0 -15 4 -12 10 3
5 1 18 -4 28 -7 13 -6 23 2 32 9 10 9 11 0 6 -7 -4 -14 -4 -14 1 -1 4 -3 24
-5 43 -3 32 -2 33 11 16 13 -18 14 -18 12 2 0 11 -4 20 -7 20 -22 -2 -31 4
-27 17 4 8 2 17 -3 20 -6 4 -6 14 1 27 8 14 8 18 0 14 -11 -7 -28 41 -17 51 3
3 -1 11 -10 17 -8 6 -16 24 -18 39 -1 15 -6 30 -11 35 -4 4 -5 0 -1 -8 4 -8 0
-6 -8 4 -9 11 -16 24 -16 29 0 4 -7 15 -15 24 -10 9 -13 24 -10 37 4 13 3 17
-2 8 -7 -9 -14 -7 -31 9 -12 11 -19 25 -16 31 4 6 3 8 -4 4 -6 -3 -15 2 -21
11 -6 10 -11 14 -11 10 0 -4 -6 -3 -12 3 -7 5 -25 20 -41 31 -15 11 -24 25
-21 31 4 7 2 8 -4 4 -6 -3 -28 3 -49 14 -21 11 -43 20 -50 20 -7 0 -13 5 -13
10 0 6 -6 10 -13 10 -7 0 -31 8 -53 19 -21 10 -60 24 -86 32 -26 7 -44 17 -41
22 3 5 -3 4 -14 -2 -14 -7 -23 -7 -31 1 -7 7 -12 8 -12 4 0 -5 -12 -1 -26 9
-15 9 -23 12 -20 6 5 -7 -1 -11 -14 -11 -13 0 -19 4 -14 12 5 7 3 8 -7 2 -20
-12 -140 -16 -153 -5 -7 6 -17 6 -26 -1z m-1010 -5888 c0 -5 -4 -10 -10 -10
-5 0 -10 5 -10 10 0 6 5 10 10 10 6 0 10 -4 10 -10z"/>
<path d="M9087 8699 c7 -7 15 -10 18 -7 3 3 -2 9 -12 12 -14 6 -15 5 -6 -5z"/>
<path d="M9155 8680 c-3 -5 -1 -10 4 -10 6 0 11 5 11 10 0 6 -2 10 -4 10 -3 0
-8 -4 -11 -10z"/>
<path d="M8515 8660 c3 -5 8 -10 11 -10 2 0 4 5 4 10 0 6 -5 10 -11 10 -5 0
-7 -4 -4 -10z"/>
<path d="M8576 8658 c3 -5 10 -6 15 -3 13 9 11 12 -6 12 -8 0 -12 -4 -9 -9z"/>
<path d="M9370 8579 c0 -5 5 -7 10 -4 6 3 10 8 10 11 0 2 -4 4 -10 4 -5 0 -10
-5 -10 -11z"/>
<path d="M9450 8521 c0 -6 4 -13 10 -16 6 -3 7 1 4 9 -7 18 -14 21 -14 7z"/>
<path d="M8066 8482 c-3 -5 1 -9 9 -9 8 0 12 4 9 9 -3 4 -7 8 -9 8 -2 0 -6 -4
-9 -8z"/>
<path d="M8015 8471 c-3 -5 -2 -12 3 -15 5 -3 9 1 9 9 0 17 -3 19 -12 6z"/>
<path d="M7335 8449 c-4 -6 -5 -12 -2 -15 2 -3 7 2 10 11 7 17 1 20 -8 4z"/>
<path d="M7890 8419 c0 -5 5 -7 10 -4 6 3 10 8 10 11 0 2 -4 4 -10 4 -5 0 -10
-5 -10 -11z"/>
<path d="M7935 8420 c3 -5 8 -10 11 -10 2 0 4 5 4 10 0 6 -5 10 -11 10 -5 0
-7 -4 -4 -10z"/>
<path d="M7966 8418 c3 -5 10 -6 15 -3 13 9 11 12 -6 12 -8 0 -12 -4 -9 -9z"/>
<path d="M7235 8401 c-3 -5 -2 -12 3 -15 5 -3 9 1 9 9 0 17 -3 19 -12 6z"/>
<path d="M7870 8400 c0 -5 5 -10 11 -10 5 0 7 5 4 10 -3 6 -8 10 -11 10 -2 0
-4 -4 -4 -10z"/>
<path d="M7119 8353 c-13 -16 -12 -17 4 -4 9 7 17 15 17 17 0 8 -8 3 -21 -13z"/>
<path d="M9620 8285 c0 -2 6 -8 13 -14 10 -8 14 -7 14 2 0 8 -6 14 -14 14 -7
0 -13 -1 -13 -2z"/>
<path d="M9707 8019 c7 -7 15 -10 18 -7 3 3 -2 9 -12 12 -14 6 -15 5 -6 -5z"/>
<path d="M5476 8007 c3 -10 9 -15 12 -12 3 3 0 11 -7 18 -10 9 -11 8 -5 -6z"/>
<path d="M5420 7980 c-9 -6 -10 -10 -3 -10 6 0 15 5 18 10 8 12 4 12 -15 0z"/>
<path d="M9730 7939 c0 -5 5 -7 10 -4 6 3 10 8 10 11 0 2 -4 4 -10 4 -5 0 -10
-5 -10 -11z"/>
<path d="M6006 7922 c-3 -5 1 -9 9 -9 8 0 12 4 9 9 -3 4 -7 8 -9 8 -2 0 -6 -4
-9 -8z"/>
<path d="M6110 7881 c0 -6 4 -13 10 -16 6 -3 7 1 4 9 -7 18 -14 21 -14 7z"/>
<path d="M3516 7707 c3 -10 9 -15 12 -12 3 3 0 11 -7 18 -10 9 -11 8 -5 -6z"/>
<path d="M9707 7693 c3 -7 6 -13 8 -13 2 0 5 6 8 13 3 8 -1 14 -8 14 -7 0 -11
-6 -8 -14z"/>
<path d="M9730 7659 c0 -5 5 -7 10 -4 6 3 10 8 10 11 0 2 -4 4 -10 4 -5 0 -10
-5 -10 -11z"/>
<path d="M9695 7640 c-3 -5 -1 -10 4 -10 6 0 11 5 11 10 0 6 -2 10 -4 10 -3 0
-8 -4 -11 -10z"/>
<path d="M3975 7631 c-3 -5 -2 -12 3 -15 5 -3 9 1 9 9 0 17 -3 19 -12 6z"/>
<path d="M4055 7580 c-3 -5 -1 -10 4 -10 6 0 11 5 11 10 0 6 -2 10 -4 10 -3 0
-8 -4 -11 -10z"/>
<path d="M4270 7421 c0 -6 4 -12 8 -15 5 -3 9 1 9 9 0 8 -4 15 -9 15 -4 0 -8
-4 -8 -9z"/>
<path d="M9627 7413 c3 -7 6 -13 8 -13 2 0 5 6 8 13 3 8 -1 14 -8 14 -7 0 -11
-6 -8 -14z"/>
<path d="M4360 7406 c0 -2 8 -10 18 -17 15 -13 16 -12 3 4 -13 16 -21 21 -21
13z"/>
<path d="M4347 7369 c4 -13 8 -18 11 -10 2 7 -1 18 -6 23 -8 8 -9 4 -5 -13z"/>
<path d="M9606 7338 c3 -5 10 -6 15 -3 13 9 11 12 -6 12 -8 0 -12 -4 -9 -9z"/>
<path d="M2750 7300 c0 -5 5 -10 11 -10 5 0 7 5 4 10 -3 6 -8 10 -11 10 -2 0
-4 -4 -4 -10z"/>
<path d="M9545 7300 c-3 -6 1 -7 9 -4 18 7 21 14 7 14 -6 0 -13 -4 -16 -10z"/>
<path d="M2846 7278 c10 -14 21 -24 23 -22 3 3 -6 15 -18 27 l-24 22 19 -27z"/>
<path d="M2820 7266 c0 -2 8 -10 18 -17 15 -13 16 -12 3 4 -13 16 -21 21 -21
13z"/>
<path d="M9510 7239 c-7 -11 -10 -23 -7 -25 2 -2 9 7 15 21 14 30 7 33 -8 4z"/>
<path d="M9551 7227 c-13 -21 -12 -21 5 -5 10 10 16 20 13 22 -3 3 -11 -5 -18
-17z"/>
<path d="M9510 7190 c0 -6 7 -10 15 -10 8 0 15 2 15 4 0 2 -7 6 -15 10 -8 3
-15 1 -15 -4z"/>
<path d="M9580 7026 c0 -2 8 -10 18 -17 15 -13 16 -12 3 4 -13 16 -21 21 -21
13z"/>
<path d="M1250 6881 c0 -6 4 -13 10 -16 6 -3 7 1 4 9 -7 18 -14 21 -14 7z"/>
<path d="M9588 6883 c6 -3 10 -9 6 -14 -8 -14 2 -11 14 4 8 10 6 13 -11 14
-12 0 -16 -1 -9 -4z"/>
<path d="M9606 6838 c3 -5 10 -6 15 -3 13 9 11 12 -6 12 -8 0 -12 -4 -9 -9z"/>
<path d="M9595 6791 c-3 -5 -2 -12 3 -15 5 -3 9 1 9 9 0 17 -3 19 -12 6z"/>
<path d="M9626 6702 c-3 -5 1 -9 9 -9 8 0 12 4 9 9 -3 4 -7 8 -9 8 -2 0 -6 -4
-9 -8z"/>
<path d="M9673 6685 c0 -8 4 -12 9 -9 5 3 6 10 3 15 -9 13 -12 11 -12 -6z"/>
<path d="M9626 6658 c3 -5 10 -6 15 -3 13 9 11 12 -6 12 -8 0 -12 -4 -9 -9z"/>
<path d="M9626 6582 c-3 -5 1 -9 9 -9 8 0 12 4 9 9 -3 4 -7 8 -9 8 -2 0 -6 -4
-9 -8z"/>
<path d="M9595 6511 c-3 -5 -2 -12 3 -15 5 -3 9 1 9 9 0 17 -3 19 -12 6z"/>
<path d="M9630 6499 c0 -5 5 -7 10 -4 6 3 10 8 10 11 0 2 -4 4 -10 4 -5 0 -10
-5 -10 -11z"/>
<path d="M9554 6318 c-4 -5 -3 -12 0 -15 3 -4 6 -1 6 6 0 7 4 10 9 6 5 -3 12
-2 15 3 3 5 -2 9 -10 9 -8 0 -17 -4 -20 -9z"/>
<path d="M9566 6262 c-3 -5 1 -9 9 -9 8 0 12 4 9 9 -3 4 -7 8 -9 8 -2 0 -6 -4
-9 -8z"/>
<path d="M9526 6218 c3 -5 10 -6 15 -3 13 9 11 12 -6 12 -8 0 -12 -4 -9 -9z"/>
<path d="M9510 6179 c0 -5 5 -7 10 -4 6 3 10 8 10 11 0 2 -4 4 -10 4 -5 0 -10
-5 -10 -11z"/>
<path d="M9340 6002 c0 -5 7 -9 15 -9 8 0 12 4 9 9 -3 4 -9 8 -15 8 -5 0 -9
-4 -9 -8z"/>
<path d="M9309 5983 c-13 -16 -12 -17 4 -4 9 7 17 15 17 17 0 8 -8 3 -21 -13z"/>
<path d="M9319 5913 c-13 -16 -12 -17 4 -4 16 13 21 21 13 21 -2 0 -10 -8 -17
-17z"/>
<path d="M9270 5906 c0 -2 7 -7 16 -10 8 -3 12 -2 9 4 -6 10 -25 14 -25 6z"/>
<path d="M9075 5760 c-3 -5 -1 -10 4 -10 6 0 11 5 11 10 0 6 -2 10 -4 10 -3 0
-8 -4 -11 -10z"/>
<path d="M9156 5753 c-6 -14 -5 -15 5 -6 7 7 10 15 7 18 -3 3 -9 -2 -12 -12z"/>
<path d="M9050 5745 c0 -5 5 -17 10 -25 5 -8 10 -10 10 -5 0 6 -5 17 -10 25
-5 8 -10 11 -10 5z"/>
<path d="M9010 5700 c0 -5 5 -10 11 -10 5 0 7 5 4 10 -3 6 -8 10 -11 10 -2 0
-4 -4 -4 -10z"/>
<path d="M9050 5690 c-9 -6 -10 -10 -3 -10 6 0 15 5 18 10 8 12 4 12 -15 0z"/>
<path d="M9035 5660 c-3 -5 -1 -10 4 -10 6 0 11 5 11 10 0 6 -2 10 -4 10 -3 0
-8 -4 -11 -10z"/>
<path d="M9095 5660 c3 -5 8 -10 11 -10 2 0 4 5 4 10 0 6 -5 10 -11 10 -5 0
-7 -4 -4 -10z"/>
<path d="M9060 5640 c-9 -6 -10 -10 -3 -10 6 0 15 5 18 10 8 12 4 12 -15 0z"/>
<path d="M9030 5611 c0 -5 7 -12 16 -15 14 -5 15 -4 4 9 -14 17 -20 19 -20 6z"/>
<path d="M9079 5618 c-5 -18 -6 -38 -1 -34 7 8 12 36 6 36 -2 0 -4 -1 -5 -2z"/>
<path d="M9100 5446 c0 -2 8 -10 18 -17 15 -13 16 -12 3 4 -13 16 -21 21 -21
13z"/>
<path d="M9083 5255 c-3 -9 -3 -18 -1 -21 3 -3 8 4 11 16 6 23 -1 27 -10 5z"/>
<path d="M9106 5222 c-3 -5 1 -9 9 -9 8 0 12 4 9 9 -3 4 -7 8 -9 8 -2 0 -6 -4
-9 -8z"/>
<path d="M9096 5167 c3 -10 9 -15 12 -12 3 3 0 11 -7 18 -10 9 -11 8 -5 -6z"/>
<path d="M9074 5156 c1 -8 5 -18 8 -22 4 -3 5 1 4 10 -1 8 -5 18 -8 22 -4 3
-5 -1 -4 -10z"/>
<path d="M9067 5093 c3 -7 6 -13 8 -13 2 0 5 6 8 13 3 8 -1 14 -8 14 -7 0 -11
-6 -8 -14z"/>
<path d="M9073 5005 c0 -8 4 -12 9 -9 5 3 6 10 3 15 -9 13 -12 11 -12 -6z"/>
<path d="M9036 4962 c-3 -5 1 -9 9 -9 8 0 12 4 9 9 -3 4 -7 8 -9 8 -2 0 -6 -4
-9 -8z"/>
<path d="M9013 4885 c0 -8 4 -12 9 -9 5 3 6 10 3 15 -9 13 -12 11 -12 -6z"/>
<path d="M8980 4840 c-9 -6 -10 -10 -3 -10 6 0 15 5 18 10 8 12 4 12 -15 0z"/>
<path d="M8936 4801 c8 -8 43 -8 38 0 -2 4 -13 7 -24 6 -10 -1 -17 -3 -14 -6z"/>
<path d="M8913 4696 c1 -6 -4 -10 -11 -8 -8 1 -11 -2 -7 -8 5 -8 13 -6 26 6
23 21 23 21 5 21 -8 0 -14 -5 -13 -11z"/>
<path d="M8910 4610 c-9 -6 -10 -10 -3 -10 6 0 15 5 18 10 8 12 4 12 -15 0z"/>
<path d="M8975 4520 c3 -5 8 -10 11 -10 2 0 4 5 4 10 0 6 -5 10 -11 10 -5 0
-7 -4 -4 -10z"/>
<path d="M8966 4422 c-3 -5 1 -9 9 -9 8 0 12 4 9 9 -3 4 -7 8 -9 8 -2 0 -6 -4
-9 -8z"/>
<path d="M8950 4346 c0 -2 7 -7 16 -10 8 -3 12 -2 9 4 -6 10 -25 14 -25 6z"/>
<path d="M9016 4258 c3 -5 10 -6 15 -3 13 9 11 12 -6 12 -8 0 -12 -4 -9 -9z"/>
<path d="M8976 4233 c-6 -14 -5 -15 5 -6 7 7 10 15 7 18 -3 3 -9 -2 -12 -12z"/>
<path d="M519 4213 c-13 -17 -13 -17 6 -3 11 8 22 16 24 17 2 2 0 3 -6 3 -6 0
-17 -8 -24 -17z"/>
<path d="M8965 4199 c-3 -4 2 -6 10 -5 21 3 28 13 10 13 -9 0 -18 -4 -20 -8z"/>
<path d="M587 4159 c7 -7 15 -10 18 -7 3 3 -2 9 -12 12 -14 6 -15 5 -6 -5z"/>
<path d="M9010 4121 c0 -6 4 -13 10 -16 6 -3 7 1 4 9 -7 18 -14 21 -14 7z"/>
<path d="M8976 4053 c-6 -14 -5 -15 5 -6 7 7 10 15 7 18 -3 3 -9 -2 -12 -12z"/>
<path d="M9015 4049 c-4 -6 -5 -12 -2 -15 2 -3 7 2 10 11 7 17 1 20 -8 4z"/>
<path d="M725 4020 c-3 -6 1 -7 9 -4 18 7 21 14 7 14 -6 0 -13 -4 -16 -10z"/>
<path d="M8981 4001 c-10 -7 -7 -9 12 -8 14 1 23 5 20 10 -6 9 -15 9 -32 -2z"/>
<path d="M990 3886 c0 -2 7 -7 16 -10 8 -3 12 -2 9 4 -6 10 -25 14 -25 6z"/>
<path d="M1090 3841 c0 -6 4 -13 10 -16 6 -3 7 1 4 9 -7 18 -14 21 -14 7z"/>
<path d="M8960 3835 c-11 -13 -11 -18 0 -28 10 -9 11 -9 6 1 -4 7 -2 19 4 27
7 8 10 15 7 15 -2 0 -10 -7 -17 -15z"/>
<path d="M1213 3791 c0 -11 5 -18 9 -15 4 3 5 11 1 19 -7 21 -12 19 -10 -4z"/>
<path d="M8915 3769 c-4 -6 -5 -12 -2 -15 2 -3 7 2 10 11 7 17 1 20 -8 4z"/>
<path d="M8935 3700 c3 -5 8 -10 11 -10 2 0 4 5 4 10 0 6 -5 10 -11 10 -5 0
-7 -4 -4 -10z"/>
<path d="M1330 3659 c0 -5 5 -7 10 -4 6 3 10 8 10 11 0 2 -4 4 -10 4 -5 0 -10
-5 -10 -11z"/>
<path d="M8846 3578 c3 -5 10 -6 15 -3 13 9 11 12 -6 12 -8 0 -12 -4 -9 -9z"/>
<path d="M8750 3519 c0 -5 5 -7 10 -4 6 3 10 8 10 11 0 2 -4 4 -10 4 -5 0 -10
-5 -10 -11z"/>
<path d="M1456 3478 c3 -5 10 -6 15 -3 13 9 11 12 -6 12 -8 0 -12 -4 -9 -9z"/>
<path d="M8715 3479 c-3 -4 2 -6 10 -5 21 3 28 13 10 13 -9 0 -18 -4 -20 -8z"/>
<path d="M1493 3447 c0 -8 6 -14 14 -14 9 0 10 4 2 14 -6 7 -12 13 -14 13 -1
0 -2 -6 -2 -13z"/>
<path d="M8653 3395 c0 -8 4 -12 9 -9 5 3 6 10 3 15 -9 13 -12 11 -12 -6z"/>
<path d="M1495 3389 c-4 -6 -5 -12 -2 -15 2 -3 7 2 10 11 7 17 1 20 -8 4z"/>
<path d="M1456 3318 c3 -5 10 -6 15 -3 13 9 11 12 -6 12 -8 0 -12 -4 -9 -9z"/>
<path d="M8556 3313 c-6 -14 -5 -15 5 -6 7 7 10 15 7 18 -3 3 -9 -2 -12 -12z"/>
<path d="M8580 3326 c0 -2 8 -10 18 -17 15 -13 16 -12 3 4 -13 16 -21 21 -21
13z"/>
<path d="M8476 3261 c-3 -5 2 -15 12 -22 15 -12 16 -12 5 2 -7 9 -10 19 -6 22
3 4 4 7 0 7 -3 0 -8 -4 -11 -9z"/>
<path d="M8310 3086 c0 -2 7 -7 16 -10 8 -3 12 -2 9 4 -6 10 -25 14 -25 6z"/>
<path d="M8228 3063 c7 -3 16 -2 19 1 4 3 -2 6 -13 5 -11 0 -14 -3 -6 -6z"/>
<path d="M8170 2986 c0 -2 7 -7 16 -10 8 -3 12 -2 9 4 -6 10 -25 14 -25 6z"/>
<path d="M8007 2939 c7 -7 15 -10 18 -7 3 3 -2 9 -12 12 -14 6 -15 5 -6 -5z"/>
<path d="M8013 2905 c0 -8 4 -12 9 -9 5 3 6 10 3 15 -9 13 -12 11 -12 -6z"/>
<path d="M7958 2903 c7 -3 16 -2 19 1 4 3 -2 6 -13 5 -11 0 -14 -3 -6 -6z"/>
<path d="M7990 2861 c0 -6 4 -13 10 -16 6 -3 7 1 4 9 -7 18 -14 21 -14 7z"/>
<path d="M7826 2818 c3 -5 10 -6 15 -3 13 9 11 12 -6 12 -8 0 -12 -4 -9 -9z"/>
<path d="M7773 2785 c0 -8 4 -12 9 -9 5 3 6 10 3 15 -9 13 -12 11 -12 -6z"/>
<path d="M1196 2753 c-6 -14 -5 -15 5 -6 7 7 10 15 7 18 -3 3 -9 -2 -12 -12z"/>
<path d="M7575 2720 c-3 -5 -1 -10 4 -10 6 0 11 5 11 10 0 6 -2 10 -4 10 -3 0
-8 -4 -11 -10z"/>
<path d="M7526 2678 c3 -5 10 -6 15 -3 13 9 11 12 -6 12 -8 0 -12 -4 -9 -9z"/>
<path d="M7570 2666 c0 -2 7 -7 16 -10 8 -3 12 -2 9 4 -6 10 -25 14 -25 6z"/>
<path d="M7346 2602 c-3 -5 1 -9 9 -9 8 0 12 4 9 9 -3 4 -7 8 -9 8 -2 0 -6 -4
-9 -8z"/>
<path d="M7286 2559 c4 -8 30 -6 38 2 3 3 -5 5 -19 5 -13 0 -22 -3 -19 -7z"/>
<path d="M7231 2540 c-9 -5 -4 -7 13 -7 29 0 32 2 13 10 -8 3 -20 2 -26 -3z"/>
<path d="M7154 2484 c0 -20 11 -25 11 -6 0 4 3 12 7 18 4 6 1 11 -5 11 -7 0
-13 -11 -13 -23z"/>
<path d="M7235 2499 c-3 -4 2 -6 10 -5 21 3 28 13 10 13 -9 0 -18 -4 -20 -8z"/>
<path d="M7079 2478 c-4 -12 -5 -57 0 -53 6 6 10 55 4 55 -1 0 -3 -1 -4 -2z"/>
<path d="M6955 2400 c-3 -5 -1 -10 4 -10 6 0 11 5 11 10 0 6 -2 10 -4 10 -3 0
-8 -4 -11 -10z"/>
<path d="M6113 2375 c0 -8 4 -12 9 -9 5 3 6 10 3 15 -9 13 -12 11 -12 -6z"/>
<path d="M6920 2380 c-9 -6 -10 -10 -3 -10 6 0 15 5 18 10 8 12 4 12 -15 0z"/>
<path d="M6250 2376 c0 -2 8 -10 18 -17 15 -13 16 -12 3 4 -13 16 -21 21 -21
13z"/>
<path d="M1035 2361 c-3 -5 -2 -12 3 -15 5 -3 9 1 9 9 0 17 -3 19 -12 6z"/>
<path d="M6075 2360 c-4 -6 -1 -9 7 -8 7 2 12 -3 10 -10 -1 -8 2 -11 8 -7 8 5
7 11 -1 21 -14 17 -16 17 -24 4z"/>
<path d="M6220 2366 c0 -2 8 -10 18 -17 15 -13 16 -12 3 4 -13 16 -21 21 -21
13z"/>
<path d="M6296 2358 c3 -5 10 -6 15 -3 13 9 11 12 -6 12 -8 0 -12 -4 -9 -9z"/>
<path d="M6945 2360 c-3 -6 1 -7 9 -4 18 7 21 14 7 14 -6 0 -13 -4 -16 -10z"/>
<path d="M6173 2335 c0 -8 4 -12 9 -9 5 3 6 10 3 15 -9 13 -12 11 -12 -6z"/>
<path d="M6819 2338 c-6 -20 -6 -39 0 -42 4 -3 7 6 7 20 0 20 -4 32 -7 22z"/>
<path d="M6376 2318 c3 -5 10 -6 15 -3 13 9 11 12 -6 12 -8 0 -12 -4 -9 -9z"/>
<path d="M5956 2273 c-6 -14 -5 -15 5 -6 7 7 10 15 7 18 -3 3 -9 -2 -12 -12z"/>
<path d="M5986 2278 c3 -5 10 -6 15 -3 13 9 11 12 -6 12 -8 0 -12 -4 -9 -9z"/>
<path d="M6496 2282 c-3 -5 1 -9 9 -9 8 0 12 4 9 9 -3 4 -7 8 -9 8 -2 0 -6 -4
-9 -8z"/>
<path d="M5870 2257 c0 -2 6 -10 14 -16 11 -9 16 -9 22 1 4 7 4 10 -1 6 -4 -4
-14 -3 -22 3 -7 6 -13 9 -13 6z"/>
<path d="M5835 2241 c-3 -5 -2 -12 3 -15 5 -3 9 1 9 9 0 17 -3 19 -12 6z"/>
<path d="M6715 2240 c-3 -5 -1 -10 4 -10 6 0 11 5 11 10 0 6 -2 10 -4 10 -3 0
-8 -4 -11 -10z"/>
<path d="M3703 2223 c4 -6 2 -13 -5 -15 -8 -3 -6 -6 4 -10 17 -7 19 15 3 29
-4 4 -5 3 -2 -4z"/>
<path d="M5793 2215 c0 -8 4 -12 9 -9 5 3 6 10 3 15 -9 13 -12 11 -12 -6z"/>
<path d="M5763 2199 c9 -6 14 -15 11 -21 -4 -7 -2 -8 5 -4 14 9 -3 36 -23 36
-6 0 -3 -5 7 -11z"/>
<path d="M3650 2158 c0 -6 3 -8 7 -5 3 4 13 1 22 -6 14 -11 14 -10 2 6 -15 20
-31 22 -31 5z"/>
<path d="M5670 2160 c0 -5 5 -10 11 -10 5 0 7 5 4 10 -3 6 -8 10 -11 10 -2 0
-4 -4 -4 -10z"/>
<path d="M3735 2140 c3 -5 8 -10 11 -10 2 0 4 5 4 10 0 6 -5 10 -11 10 -5 0
-7 -4 -4 -10z"/>
<path d="M3795 2140 c3 -5 8 -10 11 -10 2 0 4 5 4 10 0 6 -5 10 -11 10 -5 0
-7 -4 -4 -10z"/>
<path d="M3549 2123 c-13 -16 -12 -17 4 -4 16 13 21 21 13 21 -2 0 -10 -8 -17
-17z"/>
<path d="M3850 2136 c0 -2 8 -10 18 -17 15 -13 16 -12 3 4 -13 16 -21 21 -21
13z"/>
<path d="M5592 2131 c-11 -7 -11 -9 0 -14 9 -3 15 1 15 9 0 8 -1 14 -1 14 -1
0 -7 -4 -14 -9z"/>
<path d="M1045 2100 c-3 -6 1 -7 9 -4 18 7 21 14 7 14 -6 0 -13 -4 -16 -10z"/>
<path d="M3605 2100 c-3 -6 1 -7 9 -4 18 7 21 14 7 14 -6 0 -13 -4 -16 -10z"/>
<path d="M3910 2106 c0 -2 7 -7 16 -10 8 -3 12 -2 9 4 -6 10 -25 14 -25 6z"/>
<path d="M3524 2078 l-19 -23 23 19 c21 18 27 26 19 26 -2 0 -12 -10 -23 -22z"/>
<path d="M5635 2091 c-3 -5 -2 -12 3 -15 5 -3 9 1 9 9 0 17 -3 19 -12 6z"/>
<path d="M5012 2081 c-11 -7 -11 -9 0 -14 9 -3 15 1 15 9 0 8 -1 14 -1 14 -1
0 -7 -4 -14 -9z"/>
<path d="M5573 2055 c0 -8 4 -12 9 -9 5 3 6 10 3 15 -9 13 -12 11 -12 -6z"/>
<path d="M3493 2045 c0 -8 4 -15 9 -15 4 0 8 4 8 9 0 6 -4 12 -8 15 -5 3 -9
-1 -9 -9z"/>
<path d="M5050 2057 c0 -2 6 -10 14 -16 11 -9 16 -9 22 1 4 7 4 10 -1 6 -4 -4
-14 -3 -22 3 -7 6 -13 9 -13 6z"/>
<path d="M4819 2033 c-12 -16 -12 -17 2 -6 9 7 20 9 24 5 5 -4 5 -1 1 6 -9 16
-11 15 -27 -5z"/>
<path d="M4934 2035 c3 -23 12 -26 13 -5 1 11 -2 20 -7 20 -4 0 -7 -7 -6 -15z"/>
<path d="M5436 2038 c3 -5 10 -6 15 -3 13 9 11 12 -6 12 -8 0 -12 -4 -9 -9z"/>
<path d="M3446 2018 c3 -5 10 -6 15 -3 13 9 11 12 -6 12 -8 0 -12 -4 -9 -9z"/>
<path d="M4734 2018 c-4 -7 -4 -10 1 -6 4 4 15 2 24 -5 14 -11 14 -10 2 6 -16
20 -18 21 -27 5z"/>
<path d="M4290 1999 c0 -5 5 -7 10 -4 6 3 10 8 10 11 0 2 -4 4 -10 4 -5 0 -10
-5 -10 -11z"/>
<path d="M4655 1999 c-3 -4 2 -6 10 -5 21 3 28 13 10 13 -9 0 -18 -4 -20 -8z"/>
<path d="M4639 1978 c-5 -18 -6 -38 -1 -34 7 8 12 36 6 36 -2 0 -4 -1 -5 -2z"/>
<path d="M3333 1953 c0 -9 4 -10 14 -2 7 6 13 12 13 14 0 1 -6 2 -13 2 -8 0
-14 -6 -14 -14z"/>
<path d="M4366 1958 c3 -5 10 -6 15 -3 13 9 11 12 -6 12 -8 0 -12 -4 -9 -9z"/>
<path d="M3366 1942 c-3 -5 1 -9 9 -9 8 0 12 4 9 9 -3 4 -7 8 -9 8 -2 0 -6 -4
-9 -8z"/>
<path d="M3230 1908 c-10 -21 -10 -21 3 -6 11 14 16 15 27 5 12 -10 12 -9 1 6
-17 22 -18 22 -31 -5z"/>
<path d="M3235 1860 c3 -5 8 -10 11 -10 2 0 4 5 4 10 0 6 -5 10 -11 10 -5 0
-7 -4 -4 -10z"/>
<path d="M3130 1850 c-8 -5 -12 -12 -9 -15 4 -3 12 1 19 10 14 17 11 19 -10 5z"/>
<path d="M3086 1798 c3 -5 10 -6 15 -3 13 9 11 12 -6 12 -8 0 -12 -4 -9 -9z"/>
<path d="M3037 1789 c7 -7 15 -10 18 -7 3 3 -2 9 -12 12 -14 6 -15 5 -6 -5z"/>
<path d="M3076 1753 c-6 -14 -5 -15 5 -6 7 7 10 15 7 18 -3 3 -9 -2 -12 -12z"/>
<path d="M2993 1745 c0 -8 4 -12 9 -9 5 3 6 10 3 15 -9 13 -12 11 -12 -6z"/>
<path d="M2950 1740 c0 -5 5 -10 10 -10 6 0 10 5 10 10 0 6 -4 10 -10 10 -5 0
-10 -4 -10 -10z"/>
<path d="M2913 1711 c1 -18 19 -22 34 -7 4 4 1 6 -7 4 -8 -1 -14 3 -12 10 1 6
-2 12 -7 12 -6 0 -9 -8 -8 -19z"/>
<path d="M1213 1685 c0 -8 4 -12 9 -9 5 3 6 10 3 15 -9 13 -12 11 -12 -6z"/>
<path d="M2833 1653 c0 -9 4 -10 14 -2 7 6 13 12 13 14 0 1 -6 2 -13 2 -8 0
-14 -6 -14 -14z"/>
<path d="M1294 1622 c4 -3 14 -7 22 -8 9 -1 13 0 10 4 -4 3 -14 7 -22 8 -9 1
-13 0 -10 -4z"/>
<path d="M2730 1579 c0 -5 5 -7 10 -4 6 3 10 8 10 11 0 2 -4 4 -10 4 -5 0 -10
-5 -10 -11z"/>
<path d="M2653 1565 c0 -7 6 -11 14 -8 7 3 13 6 13 8 0 2 -6 5 -13 8 -8 3 -14
-1 -14 -8z"/>
<path d="M1556 1487 c3 -10 9 -15 12 -12 3 3 0 11 -7 18 -10 9 -11 8 -5 -6z"/>
<path d="M1473 1475 c0 -8 4 -12 9 -9 5 3 6 10 3 15 -9 13 -12 11 -12 -6z"/>
<path d="M2535 1471 c-3 -5 -2 -12 3 -15 5 -3 9 1 9 9 0 17 -3 19 -12 6z"/>
<path d="M2467 1459 c7 -7 15 -10 18 -7 3 3 -2 9 -12 12 -14 6 -15 5 -6 -5z"/>
<path d="M2433 1425 c0 -8 4 -12 9 -9 5 3 6 10 3 15 -9 13 -12 11 -12 -6z"/>
<path d="M1679 1393 c-13 -16 -12 -17 4 -4 16 13 21 21 13 21 -2 0 -10 -8 -17
-17z"/>
<path d="M1750 1356 c7 -7 13 -7 20 0 6 6 3 10 -10 10 -13 0 -16 -4 -10 -10z"/>
<path d="M2290 1360 c0 -5 5 -10 11 -10 5 0 7 5 4 10 -3 6 -8 10 -11 10 -2 0
-4 -4 -4 -10z"/>
<path d="M1896 1327 c3 -10 9 -15 12 -12 3 3 0 11 -7 18 -10 9 -11 8 -5 -6z"/>
<path d="M2114 1320 c0 -13 4 -16 10 -10 7 7 7 13 0 20 -6 6 -10 3 -10 -10z"/>
</g>
</svg>
